<?xml version="1.0" standalone="no"?>
<!DOCTYPE svg PUBLIC "-//W3C//DTD SVG 20010904//EN"
 "http://www.w3.org/TR/2001/REC-SVG-20010904/DTD/svg10.dtd">
<svg version="1.0" xmlns="http://www.w3.org/2000/svg"
 width="128.000000pt" height="128.000000pt" viewBox="0 0 128.000000 128.000000"
 preserveAspectRatio="xMidYMid meet">
<metadata>
Created by potrace 1.14, written by Peter Selinger 2001-2017
</metadata>
<g transform="translate(0.000000,128.000000) scale(0.100000,-0.100000)"
fill="#000000" stroke="none">
<path d="M0 640 l0 -640 185 0 184 0 -16 28 c-15 26 -15 33 5 99 20 64 21 103
3 103 -28 1 -30 18 -16 110 8 52 18 108 21 124 6 27 5 28 -22 22 -16 -4 -54
-23 -86 -42 -31 -18 -69 -34 -85 -34 -24 0 -16 7 55 53 84 54 95 72 36 61 -18
-3 -34 -1 -38 5 -7 11 4 14 93 28 l54 8 19 55 c10 30 23 87 28 125 6 39 17 90
25 115 17 52 98 160 120 160 8 0 19 9 25 20 6 12 21 20 35 20 20 0 25 -6 31
-35 9 -48 0 -89 -52 -226 -24 -65 -44 -124 -44 -130 0 -7 12 -1 28 13 26 26
66 46 186 94 33 13 73 36 88 51 54 52 28 139 -58 192 -23 14 -67 43 -97 63
-69 46 -131 78 -151 78 -8 0 -83 -23 -166 -51 -144 -48 -199 -57 -207 -33 -5
14 108 64 207 94 81 24 144 56 174 89 l19 21 -291 0 -292 0 0 -640z m372 578
c-9 -9 -15 -9 -24 0 -9 9 -7 12 12 12 19 0 21 -3 12 -12z m-32 -1063 c0 -15
-6 -25 -14 -25 -19 0 -27 25 -13 39 18 18 27 13 27 -14z"/>
<path d="M677 1239 c43 -23 99 -47 125 -54 26 -7 65 -26 85 -43 21 -16 61 -41
88 -55 58 -29 74 -45 118 -119 l33 -54 -18 -39 c-9 -22 -18 -57 -18 -77 0 -45
-8 -68 -24 -68 -6 0 -17 -12 -23 -27 -7 -16 -22 -41 -35 -56 -20 -25 -23 -40
-25 -139 -1 -61 -6 -115 -11 -120 -17 -17 -20 6 -11 100 10 113 2 142 -40 142
-39 0 -50 -20 -58 -115 -3 -41 -10 -75 -14 -75 -13 0 -22 47 -15 80 4 21 0 35
-13 47 -10 10 -21 26 -24 35 -5 16 -13 15 -94 -7 -176 -47 -203 -68 -203 -157
-1 -79 -16 -131 -46 -154 -22 -18 -28 -32 -32 -78 -2 -31 -9 -56 -15 -56 -6 0
-8 -20 -4 -54 4 -39 1 -60 -9 -75 l-15 -21 450 0 451 0 0 640 0 640 -340 0
-341 0 78 -41z m179 -855 c-3 -9 -6 -43 -7 -77 0 -51 -2 -58 -10 -37 -12 28
-1 130 13 130 6 0 7 -7 4 -16z"/>
</g>
</svg>
